<svg id='Tree_Planting_24' width='50' height='50' viewBox='0 0 24 24' xmlns='http://www.w3.org/2000/svg' xmlns:xlink='http://www.w3.org/1999/xlink'><rect width='24' height='24' stroke='none' fill='#000000' opacity='0'/>


                            <g transform="matrix(0.5 0 0 0.5 12 12)" >
                            <g style="" >
                            <g transform="matrix(1 0 0 1 -1.46 -11.5)" >
                            <path style="stroke: none; stroke-width: 1; stroke-dasharray: none; stroke-linecap: butt; stroke-dashoffset: 0; stroke-linejoin: miter; stroke-miterlimit: 4; fill: rgb(186,224,189); fill-rule: nonzero; opacity: 1;" transform=" translate(-18.54, -8.5)" d="M 19.772 15.5 C 13.062999999999999 15.5 10.102999999999998 6.993 9.572 5.2669999999999995 C 10.581 4.464 14.683 1.5 20.156 1.5 C 23.717 1.5 27.5 3.207 27.5 6.371 C 27.5 9.155000000000001 24.415 9.682 24.284 9.704 L 23.843 9.775 L 23.863 10.221 C 23.864 10.248 23.969 12.917 22.516 14.439 C 21.843 15.143 20.92 15.5 19.772 15.5 z" stroke-linecap="round" />
                            </g>
                            <g transform="matrix(1 0 0 1 -1.5 -11.5)" >
                            <path style="stroke: none; stroke-width: 1; stroke-dasharray: none; stroke-linecap: butt; stroke-dashoffset: 0; stroke-linejoin: miter; stroke-miterlimit: 4; fill: rgb(94,156,118); fill-rule: nonzero; opacity: 1;" transform=" translate(-18.5, -8.5)" d="M 20.156 2 C 23.474 2 27 3.532 27 6.371 C 27 8.719000000000001 24.317 9.191 24.208 9.209 L 23.325 9.35 L 23.364 10.243 C 23.365000000000002 10.268 23.456 12.735 22.152 14.096 C 21.569 14.704 20.791 15 19.773 15 C 13.753 15 10.878 7.642 10.155 5.446999999999999 C 11.45 4.47 15.217 2 20.156 2 M 20.156 1 C 13.579 1 9 5.091 9 5.091 C 9 5.091 11.861 16 19.773 16 C 24.644 16 24.362000000000002 10.197 24.362000000000002 10.197 C 24.362000000000002 10.197 28 9.629 28 6.371 C 28 3.002 24.222 1 20.156 1 L 20.156 1 z" stroke-linecap="round" />
                            </g>
                            <g transform="matrix(1 0 0 1 2.99 -4.98)" >
                            <path style="stroke: rgb(94,156,118); stroke-width: 1; stroke-dasharray: none; stroke-linecap: butt; stroke-dashoffset: 0; stroke-linejoin: miter; stroke-miterlimit: 10; fill: none; fill-rule: nonzero; opacity: 1;" transform=" translate(-22.99, -15.02)" d="M 27.5 23 C 27.5 13.412 27.038 10.097 18.483 7.032" stroke-linecap="round" />
                            </g>
                            <g transform="matrix(1 0 0 1 3.75 8.14)" >
                            <path style="stroke: none; stroke-width: 1; stroke-dasharray: none; stroke-linecap: butt; stroke-dashoffset: 0; stroke-linejoin: miter; stroke-miterlimit: 4; fill: rgb(166,113,78); fill-rule: nonzero; opacity: 1;" transform=" translate(-23.75, -28.14)" d="M 26.786 35.786 C 24.817 35.786 23.215 34.184000000000005 23.215 32.215 L 23.215 31.715000000000003 L 22.715 31.715000000000003 C 21.03 31.715000000000003 19.56 30.519000000000002 19.219 28.872000000000003 L 19.141 28.5 L 18.761999999999997 28.474 C 18.558999999999997 28.46 18.359999999999996 28.436 18.168999999999997 28.389 L 17.811999999999998 28.302 L 17.621999999999996 28.617 C 16.965999999999998 29.707 15.824999999999996 30.358 14.571999999999996 30.358 C 12.602999999999996 30.358 11.000999999999996 28.756 11.000999999999996 26.787 C 11.000999999999996 24.817999999999998 12.602999999999996 23.215999999999998 14.571999999999996 23.215999999999998 C 14.852999999999996 23.215999999999998 15.146999999999995 23.259999999999998 15.495999999999995 23.354 L 15.851999999999995 23.45 L 16.048999999999996 23.137999999999998 C 16.696 22.112 17.8 21.5 19 21.5 C 19.566 21.5 20.125 21.648 20.661 21.939 L 21.027 22.139 L 21.289 21.814999999999998 C 21.964 20.979 22.952 20.5 24 20.5 C 24.941 20.5 25.825 20.87 26.488 21.542 L 26.7 21.756 L 26.989 21.669 C 27.367 21.554 27.688 21.5 28 21.5 C 29.643 21.5 31.082 22.666 31.422 24.272 L 31.533 24.796 L 32.048 24.65 C 32.407000000000004 24.548 32.71 24.5 33 24.5 C 34.93 24.5 36.5 26.07 36.5 28 C 36.5 29.93 34.93 31.5 33 31.5 C 32.966 31.5 32.933 31.494 32.899 31.489 L 32.751 31.472 L 32.483 31.452 L 32.318999999999996 31.665000000000003 C 31.862999999999996 32.257000000000005 31.241999999999997 32.685 30.522999999999996 32.902 L 30.265999999999995 32.979 L 30.187999999999995 33.236 C 29.729 34.762 28.362 35.786 26.786 35.786 z" stroke-linecap="round" />
                            </g>
                            <g transform="matrix(1 0 0 1 3.75 8.14)" >
                            <path style="stroke: none; stroke-width: 1; stroke-dasharray: none; stroke-linecap: butt; stroke-dashoffset: 0; stroke-linejoin: miter; stroke-miterlimit: 4; fill: rgb(122,79,52); fill-rule: nonzero; opacity: 1;" transform=" translate(-23.75, -28.14)" d="M 24 21 C 24.806 21 25.563 21.317 26.132 21.893 L 26.556 22.322 L 27.134 22.147 C 27.464 22.047 27.739 22 28 22 C 29.408 22 30.641 22.999 30.933 24.376 L 31.155 25.424 L 32.185 25.131 C 32.499 25.042 32.758 25 33 25 C 34.653999999999996 25 36 26.346 36 28 C 36 29.654 34.653999999999996 31 33.018 31.001 L 32.967 30.994 C 32.907 30.986 32.848 30.978 32.787 30.974 L 32.251 30.935 L 31.923 31.360999999999997 C 31.531 31.869999999999997 30.997 32.236999999999995 30.378999999999998 32.422999999999995 L 29.863999999999997 32.577999999999996 L 29.708999999999996 33.092999999999996 C 29.313999999999997 34.403999999999996 28.139999999999997 35.285999999999994 26.784999999999997 35.285999999999994 C 25.090999999999998 35.285999999999994 23.713999999999995 33.907999999999994 23.713999999999995 32.214999999999996 L 23.713999999999995 31.214999999999996 L 22.713999999999995 31.214999999999996 C 21.264999999999993 31.214999999999996 20.000999999999994 30.186999999999998 19.706999999999994 28.770999999999997 L 19.552999999999994 28.028 L 18.795999999999992 27.976 C 18.595999999999993 27.962 18.429999999999993 27.939 18.286999999999992 27.904 L 17.571999999999992 27.729 L 17.191999999999993 28.36 C 16.626999999999992 29.299 15.646999999999993 29.858999999999998 14.570999999999993 29.858999999999998 C 12.876999999999992 29.858999999999998 11.499999999999993 28.480999999999998 11.499999999999993 26.787999999999997 C 11.499999999999993 25.093999999999998 12.877999999999993 23.716999999999995 14.570999999999993 23.716999999999995 C 14.806999999999993 23.716999999999995 15.058999999999992 23.754999999999995 15.364999999999993 23.837999999999994 L 16.075999999999993 24.028999999999993 L 16.46999999999999 23.406999999999993 C 17.027 22.525 17.973 22 19 22 C 19.482 22 19.96 22.127 20.422 22.379 L 21.154 22.778000000000002 L 21.678 22.129 C 22.257 21.411 23.104 21 24 21 M 24 20 C 22.742 20 21.633 20.593 20.9 21.501 C 20.333 21.192 19.692 21 19 21 C 17.576 21 16.334 21.749 15.626 22.87 C 15.288 22.779 14.939 22.715 14.572 22.715 C 12.322999999999999 22.715 10.501 24.538 10.501 26.786 C 10.501 29.034000000000002 12.324 30.857 14.572 30.857 C 16.054 30.857 17.338 30.057 18.05 28.874 C 18.27 28.927999999999997 18.497 28.956999999999997 18.729 28.973 C 19.112 30.823999999999998 20.750999999999998 32.214999999999996 22.715 32.214999999999996 C 22.715 34.464 24.538 36.285999999999994 26.786 36.285999999999994 C 28.626 36.285999999999994 30.163 35.056999999999995 30.667 33.38099999999999 C 31.492 33.132999999999996 32.202 32.63699999999999 32.715 31.970999999999993 C 32.811 31.978 32.902 32 33 32 C 35.209 32 37 30.209 37 28 C 37 25.791 35.209 24 33 24 C 32.62 24 32.259 24.07 31.911 24.169 C 31.528 22.359 29.924 21 28 21 C 27.595 21 27.212 21.078 26.844 21.19 C 26.118 20.456 25.113 20 24 20 L 24 20 z" stroke-linecap="round" />
                            </g>
                            <g transform="matrix(1 0 0 1 -0.02 9.99)" >
                            <path style="stroke: none; stroke-width: 1; stroke-dasharray: none; stroke-linecap: butt; stroke-dashoffset: 0; stroke-linejoin: miter; stroke-miterlimit: 4; fill: rgb(245,206,133); fill-rule: nonzero; opacity: 1;" transform=" translate(-19.98, -29.99)" d="M 24.079 38.489 C 23.678 38.489 23.29 38.403999999999996 22.926000000000002 38.236999999999995 L 7.799 31.29 L 1.5 33.809 L 1.5 24.037999999999997 L 6.893 22.034999999999997 C 7.851 21.68 8.854 21.5 9.874 21.5 C 11.258000000000001 21.5 12.637 21.84 13.862 22.484 L 23.392 27.496000000000002 C 24.570999999999998 28.116000000000003 25.037 29.585 24.433 30.771 L 24.235 31.159000000000002 L 25.393 31.966 L 35.21 27.928 C 35.5 27.808 35.804 27.747 36.115 27.747 C 37.108000000000004 27.747 37.979 28.348 38.334 29.278 C 38.748000000000005 30.360999999999997 38.125 31.785 37.001000000000005 32.324999999999996 L 25.321000000000005 38.193 C 24.937 38.387 24.508 38.489 24.079 38.489 L 24.079 38.489 z" stroke-linecap="round" />
                            </g>
                            <g transform="matrix(1 0 0 1 -0.02 9.99)" >
                            <path style="stroke: none; stroke-width: 1; stroke-dasharray: none; stroke-linecap: butt; stroke-dashoffset: 0; stroke-linejoin: miter; stroke-miterlimit: 4; fill: rgb(150,122,68); fill-rule: nonzero; opacity: 1;" transform=" translate(-19.98, -29.99)" d="M 9.875 22 C 11.178 22 12.475999999999999 22.321 13.629 22.927 L 23.159 27.939 C 24.096 28.432 24.468 29.601 23.987 30.545 L 23.590999999999998 31.321 L 24.305999999999997 31.819000000000003 L 24.881999999999998 32.221000000000004 L 25.33 32.533 L 25.834999999999997 32.325 L 35.402 28.391000000000002 C 35.631 28.296000000000003 35.871 28.249000000000002 36.116 28.249000000000002 C 36.9 28.249000000000002 37.587 28.724000000000004 37.867 29.459000000000003 C 38.187 30.298000000000002 37.671 31.451000000000004 36.768 31.885000000000005 L 25.096 37.749 C 24.782 37.907000000000004 24.431 37.99 24.08 37.99 C 23.752 37.99 23.433999999999997 37.92 23.134999999999998 37.783 L 8.203 30.925 L 7.813 30.746000000000002 L 7.414 30.905 L 2 33.071 L 2 24.385999999999996 L 7.067 22.503999999999994 C 7.969 22.17 8.913 22 9.875 22 M 9.875 21 C 8.809 21 7.741 21.188 6.720000000000001 21.567 L 1 23.691 L 1 34.548 L 7.786 31.834000000000003 L 22.717 38.691 C 23.15 38.89 23.615 38.989000000000004 24.079 38.989000000000004 C 24.582 38.989000000000004 25.084 38.873000000000005 25.544 38.642 L 37.216 32.778000000000006 C 38.531 32.14600000000001 39.32 30.465000000000007 38.800000000000004 29.102000000000004 C 38.358000000000004 27.945000000000004 37.26500000000001 27.249000000000002 36.114000000000004 27.249000000000002 C 35.748000000000005 27.249000000000002 35.377 27.319000000000003 35.019000000000005 27.467000000000002 L 25.454000000000008 31.401000000000003 L 24.878000000000007 30.999000000000002 C 25.610000000000007 29.563000000000002 25.052000000000007 27.805000000000003 23.625000000000007 27.054000000000002 L 14.095000000000008 22.042 C 12.779 21.35 11.329 21 9.875 21 L 9.875 21 z" stroke-linecap="round" />
                            </g>
                            <g transform="matrix(1 0 0 1 -0.05 10.3)" >
                            <path style="stroke: rgb(150,122,68); stroke-width: 1; stroke-dasharray: none; stroke-linecap: butt; stroke-dashoffset: 0; stroke-linejoin: miter; stroke-miterlimit: 10; fill: none; fill-rule: nonzero; opacity: 1;" transform=" translate(-19.95, -30.3)" d="M 15.583 28.649 L 21.701999999999998 31.742 C 22.644 32.218 23.794999999999998 31.876 24.323999999999998 30.963 L 24.323999999999998 30.963" stroke-linecap="round" />
                            </g>
                            </g>
                            </g>
                        </svg>
