<svg id='Solid_Fertilizer_24' width='50' height='50' viewBox='0 0 24 24' xmlns='http://www.w3.org/2000/svg' xmlns:xlink='http://www.w3.org/1999/xlink'><rect width='24' height='24' stroke='none' fill='#000000' opacity='0'/>
                            <g transform="matrix(0.42 0 0 0.42 12 12)" >
                            <g style="" >
                            <g transform="matrix(1 0 0 1 -0.51 -7.52)" >
                            <linearGradient id="SVGID_Lmeg4lru_GPXsmLqIbVKoa_1" gradientUnits="userSpaceOnUse" gradientTransform="matrix(1 0 0 1 -23.49 -16.48)" x1="6.017" y1="16.483" x2="40.958" y2="16.483">
                            <stop offset="0%" style="stop-color:rgb(68,68,68);stop-opacity: 1"/>
                            <stop offset="100%" style="stop-color:rgb(99,99,99);stop-opacity: 1"/>
                            </linearGradient>
                            <polygon style="stroke: none; stroke-width: 1; stroke-dasharray: none; stroke-linecap: butt; stroke-dashoffset: 0; stroke-linejoin: miter; stroke-miterlimit: 4; fill: url(#SVGID_Lmeg4lru_GPXsmLqIbVKoa_1); fill-rule: nonzero; opacity: 1;" points="17.47,-0.15 -0.03,-3.96 -17.47,-0.15 -16.62,2.68 10.35,3.96 16.61,1.98 " />
                            </g>
                            <g transform="matrix(1 0 0 1 -0.06 9.97)" >
                            <linearGradient id="SVGID_Lmeg4lru_GPXsmLqIbVKob_2" gradientUnits="userSpaceOnUse" gradientTransform="matrix(1 0 0 1 0 0)" x1="4.895" y1="33.968" x2="42.98" y2="33.968">
                            <stop offset="0%" style="stop-color:rgb(235,168,75);stop-opacity: 1"/>
                            <stop offset="100%" style="stop-color:rgb(217,114,24);stop-opacity: 1"/>
                            </linearGradient>
                            <path style="stroke: none; stroke-width: 1; stroke-dasharray: none; stroke-linecap: butt; stroke-dashoffset: 0; stroke-linejoin: miter; stroke-miterlimit: 4; fill: url(#SVGID_Lmeg4lru_GPXsmLqIbVKob_2); fill-rule: nonzero; opacity: 1;" transform=" translate(-23.94, -33.97)" d="M 38.331 23.989 C 38.331 23.989 39.821000000000005 29.192 39.862 33.198 C 39.896 36.51 44.388000000000005 40.478 42.529 42.315 C 41.56 43.272 39.971000000000004 43.726 34.836000000000006 43.272 C 33.629000000000005 43.165 32.898 43.033 31.444000000000006 43.272 C 25.630000000000006 44.229 16.90800000000001 44.229 13.032000000000007 43.272 C 9.156000000000008 42.315 6.308000000000007 43.272 5.3390000000000075 42.315 C 3.479000000000007 40.477999999999994 8.059000000000008 36.305 8.059000000000008 32.992 C 8.059000000000008 27.967 8.517000000000008 23.947999999999997 8.517000000000008 23.947999999999997" stroke-linecap="round" />
                            </g>
                            <g transform="matrix(1 0 0 1 2.58 12.58)" >
                            <path style="stroke: rgb(33,163,102); stroke-width: 3; stroke-dasharray: none; stroke-linecap: round; stroke-dashoffset: 0; stroke-linejoin: miter; stroke-miterlimit: 10; fill: none; fill-rule: nonzero; opacity: 1;" transform=" translate(-26.58, -36.58)" d="M 24.329 34.67 C 26.25 35.742000000000004 27.706 37.034 28.824 38.487" stroke-linecap="round" />
                            </g>
                            <g transform="matrix(1 0 0 1 -1.01 9.5)" >
                            <path style="stroke: none; stroke-width: 1; stroke-dasharray: none; stroke-linecap: butt; stroke-dashoffset: 0; stroke-linejoin: miter; stroke-miterlimit: 4; fill: rgb(51,196,129); fill-rule: nonzero; opacity: 1;" transform=" translate(-22.99, -33.5)" d="M 17.02 28.361 C 17.02 28.361 17.294999999999998 34.856 20.354 37.486000000000004 C 22.456 39.294000000000004 25.464 39.465 27.412 37.486000000000004 C 29.36 35.507000000000005 29.589 32.03 27.412 30.316000000000003 C 23.241 27.034 17.02 28.361 17.02 28.361 z" stroke-linecap="round" />
                            </g>
                            <g transform="matrix(1 0 0 1 -0.48 -12.49)" >
                            <linearGradient id="SVGID_Lmeg4lru_GPXsmLqIbVKoc_3" gradientUnits="userSpaceOnUse" gradientTransform="matrix(1 0 0 1 0 0)" x1="9.515" y1="11.506" x2="37.523" y2="11.506">
                            <stop offset="0%" style="stop-color:rgb(241,137,174);stop-opacity: 1"/>
                            <stop offset="100%" style="stop-color:rgb(238,76,149);stop-opacity: 1"/>
                            </linearGradient>
                            <path style="stroke: none; stroke-width: 1; stroke-dasharray: none; stroke-linecap: butt; stroke-dashoffset: 0; stroke-linejoin: miter; stroke-miterlimit: 4; fill: url(#SVGID_Lmeg4lru_GPXsmLqIbVKoc_3); fill-rule: nonzero; opacity: 1;" transform=" translate(-23.52, -11.51)" d="M 37.523 17.706 C 37.523 17.706 31.319000000000003 3.8970000000000002 23.727000000000004 3.959999999999999 C 16.494 4.02 9.515 17.706 9.515 17.706 L 23.78 19.051 L 37.523 17.706 z" stroke-linecap="round" />
                            </g>
                            <g transform="matrix(1 0 0 1 -0.51 -2.59)" >
                            <linearGradient id="SVGID_Lmeg4lru_GPXsmLqIbVKod_4" gradientUnits="userSpaceOnUse" gradientTransform="matrix(1 0 0 1 0 0)" x1="6.013" y1="21.413" x2="40.958" y2="21.413">
                            <stop offset="0%" style="stop-color:rgb(212,148,59);stop-opacity: 1"/>
                            <stop offset="100%" style="stop-color:rgb(194,98,14);stop-opacity: 1"/>
                            <stop offset="100%" style="stop-color:rgb(194,98,14);stop-opacity: 1"/>
                            </linearGradient>
                            <path style="stroke: none; stroke-width: 1; stroke-dasharray: none; stroke-linecap: butt; stroke-dashoffset: 0; stroke-linejoin: miter; stroke-miterlimit: 4; fill: url(#SVGID_Lmeg4lru_GPXsmLqIbVKod_4); fill-rule: nonzero; opacity: 1;" transform=" translate(-23.49, -21.41)" d="M 40.958 16.335 C 40.949999999999996 20.094 40.958 22.584 39.93 23.365000000000002 C 38.152 24.716 33.763999999999996 26.490000000000002 23.488 26.490000000000002 C 13.212000000000003 26.490000000000002 8.792 24.693 7.045 23.365 C 6.243 22.756 6.058 20.912 6.0169999999999995 18.677999999999997 C 6.007 18.044999999999998 6.0169999999999995 16.677999999999997 6.0169999999999995 16.334999999999997 C 6.017 16.335 23.398 19.118 40.958 16.335 z" stroke-linecap="round" />
                            </g>
                            <g transform="matrix(1 0 0 1 5.02 -11.03)" >
                            <path style="stroke: none; stroke-width: 1; stroke-dasharray: none; stroke-linecap: butt; stroke-dashoffset: 0; stroke-linejoin: miter; stroke-miterlimit: 4; fill: rgb(224,224,224); fill-rule: evenodd; opacity: 1;" transform=" translate(-29.02, -12.97)" d="M 29.655 12.226 C 30.064 12.578000000000001 30.109 13.196000000000002 29.757 13.605 C 29.405 14.014000000000001 28.787000000000003 14.059000000000001 28.378 13.707 C 27.968999999999998 13.355 27.924 12.737 28.276 12.328000000000001 C 28.628 11.919 29.246 11.874 29.655 12.226 z" stroke-linecap="round" />
                            </g>
                            <g transform="matrix(1 0 0 1 -3.04 -15.02)" >
                            <path style="stroke: none; stroke-width: 1; stroke-dasharray: none; stroke-linecap: butt; stroke-dashoffset: 0; stroke-linejoin: miter; stroke-miterlimit: 4; fill: rgb(224,224,224); fill-rule: evenodd; opacity: 1;" transform=" translate(-20.96, -8.98)" d="M 21.619 8.221 C 22.038 8.582 22.085 9.215 21.723 9.634 C 21.362 10.053 20.729 10.1 20.31 9.738 C 19.891 9.376999999999999 19.843999999999998 8.744 20.206 8.325 C 20.567 7.907 21.2 7.86 21.619 8.221 z" stroke-linecap="round" />
                            </g>
                            <g transform="matrix(1 0 0 1 1.97 -14.03)" >
                            <path style="stroke: none; stroke-width: 1; stroke-dasharray: none; stroke-linecap: butt; stroke-dashoffset: 0; stroke-linejoin: miter; stroke-miterlimit: 4; fill: rgb(224,224,224); fill-rule: evenodd; opacity: 1;" transform=" translate(-25.97, -9.97)" d="M 26.605 9.229 C 27.013 9.581 27.058 10.197 26.707 10.604999999999999 C 26.355 11.012999999999998 25.739 11.057999999999998 25.331 10.706999999999999 C 24.923 10.354999999999999 24.878 9.738999999999999 25.229 9.331 C 25.581 8.923 26.198 8.877 26.605 9.229 z" stroke-linecap="round" />
                            </g>
                            <g transform="matrix(1 0 0 1 -1.03 -10.02)" >
                            <path style="stroke: none; stroke-width: 1; stroke-dasharray: none; stroke-linecap: butt; stroke-dashoffset: 0; stroke-linejoin: miter; stroke-miterlimit: 4; fill: rgb(224,224,224); fill-rule: evenodd; opacity: 1;" transform=" translate(-22.97, -13.98)" d="M 23.608 13.243 C 24.016000000000002 13.595 24.061 14.211 23.71 14.619 C 23.358 15.027 22.742 15.072 22.334 14.721 C 21.926 14.369 21.881 13.753 22.232 13.345 C 22.584 12.937 23.201 12.891 23.608 13.243 z" stroke-linecap="round" />
                            </g>
                            <g transform="matrix(1 0 0 1 -6.98 -10.98)" >
                            <path style="stroke: none; stroke-width: 1; stroke-dasharray: none; stroke-linecap: butt; stroke-dashoffset: 0; stroke-linejoin: miter; stroke-miterlimit: 4; fill: rgb(224,224,224); fill-rule: evenodd; opacity: 1;" transform=" translate(-17.02, -13.02)" d="M 17.665 12.269 C 18.076999999999998 12.624 18.122999999999998 13.247 17.768 13.659 C 17.413 14.071000000000002 16.79 14.117 16.378 13.762 C 15.966 13.407 15.92 12.784 16.275 12.372 C 16.63 11.96 17.253 11.914 17.665 12.269 z" stroke-linecap="round" />
                            </g>
                            </g>
                            </g>
                        </svg>
