<svg id='Natrue_Ecology_Recycle_1_24' width='50' height='50' viewBox='0 0 24 24' xmlns='http://www.w3.org/2000/svg' xmlns:xlink='http://www.w3.org/1999/xlink'><rect width='24' height='24' stroke='none' fill='#000000' opacity='0'/>
                            <g transform="matrix(1.33 0 0 1.33 12 12)" >
                            <g style="" >
                            <g transform="matrix(1 0 0 1 -2.64 4.72)" >
                            <path style="stroke: rgb(248,59,172); stroke-width: 1; stroke-dasharray: none; stroke-linecap: round; stroke-dashoffset: 0; stroke-linejoin: round; stroke-miterlimit: 4; fill: none; fill-rule: nonzero; opacity: 1;" transform=" translate(-4.36, -12.22)" d="M 5.99998 11.08 L 5.99998 13.08 C 5.99739 13.1552 5.96569 13.2264 5.91159 13.2786 C 5.85748 13.3309 5.78519 13.36 5.70998 13.36 L 3.60998 13.36 C 3.26469 13.3018 2.95211 13.1207 2.72998 12.85" stroke-linecap="round" />
                            </g>
                            <g transform="matrix(1 0 0 1 -4.1 2.22)" >
                            <path style="stroke: none; stroke-width: 1; stroke-dasharray: none; stroke-linecap: butt; stroke-dashoffset: 0; stroke-linejoin: miter; stroke-miterlimit: 4; fill: rgb(255,185,236); fill-rule: nonzero; opacity: 1;" transform=" translate(-2.9, -9.72)" d="M 2.73 12.86 C 2.73 12.86 1.64 11.91 4.17 9.38 L 5.3 9.38 L 3.61 6.59 L 0.5 6.59 L 1.35 7.68 C 1.35 7.68 0.78 7.78 0.78 8.57 C 1.07897 10.1349 1.74753 11.6058 2.73 12.86 L 2.73 12.86 Z" stroke-linecap="round" />
                            </g>
                            <g transform="matrix(1 0 0 1 4.92 0.22)" >
                            <path style="stroke: rgb(248,59,172); stroke-width: 1; stroke-dasharray: none; stroke-linecap: round; stroke-dashoffset: 0; stroke-linejoin: round; stroke-miterlimit: 4; fill: none; fill-rule: nonzero; opacity: 1;" transform=" translate(-11.92, -7.72)" d="M 10.35 7.37 L 11.83 6.37 C 11.8631 6.3554 11.8988 6.34785 11.935 6.34785 C 11.9711 6.34785 12.0069 6.3554 12.04 6.37 C 12.0786 6.37452 12.1157 6.38764 12.1486 6.40841 C 12.1815 6.42918 12.2093 6.45706 12.23 6.49 L 13.38 8.21 C 13.4487 8.34828 13.4844 8.50059 13.4844 8.655 C 13.4844 8.80941 13.4487 8.96172 13.38 9.1" stroke-linecap="round" />
                            </g>
                            <g transform="matrix(1 0 0 1 3.63 4.25)" >
                            <path style="stroke: none; stroke-width: 1; stroke-dasharray: none; stroke-linecap: butt; stroke-dashoffset: 0; stroke-linejoin: miter; stroke-miterlimit: 4; fill: rgb(255,185,236); fill-rule: nonzero; opacity: 1;" transform=" translate(-10.63, -11.75)" d="M 13.42 9 C 13.42 9 13.1 10.3 9.78998 10 L 9.78998 9.13 L 7.84998 11.67 L 9.68998 14.5 L 9.78998 13.17 C 9.78998 13.17 10.16 13.62 10.79 13.17 C 11.8465 11.902 12.7309 10.4998 13.42 9 L 13.42 9 Z" stroke-linecap="round" />
                            </g>
                            <g transform="matrix(1 0 0 1 -3.21 -4.11)" >
                            <path style="stroke: rgb(248,59,172); stroke-width: 1; stroke-dasharray: none; stroke-linecap: round; stroke-dashoffset: 0; stroke-linejoin: round; stroke-miterlimit: 4; fill: none; fill-rule: nonzero; opacity: 1;" transform=" translate(-3.79, -3.39)" d="M 4.35 5.28 L 3 4.66 C 2.93341 4.6256 2.88211 4.56751 2.8562 4.49719 C 2.83029 4.42686 2.83165 4.34938 2.86 4.28 L 4 2 C 4.07616 1.86501 4.18265 1.74957 4.31108 1.6628 C 4.4395 1.57603 4.58634 1.52029 4.74 1.5" stroke-linecap="round" />
                            </g>
                            <g transform="matrix(1 0 0 1 1 -4)" >
                            <path style="stroke: none; stroke-width: 1; stroke-dasharray: none; stroke-linecap: butt; stroke-dashoffset: 0; stroke-linejoin: miter; stroke-miterlimit: 4; fill: rgb(255,185,236); fill-rule: nonzero; opacity: 1;" transform=" translate(-8, -3.5)" d="M 4.73999 1.5 C 4.73999 1.5 5.96999 1.5 7.52999 4.5 L 6.71999 5.5 L 10.08 5.5 L 11.27 2.36 L 9.86999 2.79 C 9.84964 2.57302 9.77107 2.36557 9.64258 2.18956 C 9.51409 2.01354 9.34044 1.87549 9.13999 1.79 C 8.45073 1.56182 7.72512 1.46348 6.99999 1.5 L 4.73999 1.5 Z" stroke-linecap="round" />
                            </g>
                            <g transform="matrix(1 0 0 1 -4.1 2.22)" >
                            <path style="stroke: rgb(248,59,172); stroke-width: 1; stroke-dasharray: none; stroke-linecap: round; stroke-dashoffset: 0; stroke-linejoin: round; stroke-miterlimit: 4; fill: none; fill-rule: nonzero; opacity: 1;" transform=" translate(-2.9, -9.72)" d="M 2.73 12.86 C 2.73 12.86 1.64 11.91 4.17 9.38 L 5.3 9.38 L 3.61 6.59 L 0.5 6.59 L 1.35 7.68 C 1.35 7.68 0.78 7.78 0.78 8.57 C 1.07897 10.1349 1.74753 11.6058 2.73 12.86 L 2.73 12.86 Z" stroke-linecap="round" />
                            </g>
                            <g transform="matrix(1 0 0 1 3.63 4.25)" >
                            <path style="stroke: rgb(248,59,172); stroke-width: 1; stroke-dasharray: none; stroke-linecap: round; stroke-dashoffset: 0; stroke-linejoin: round; stroke-miterlimit: 4; fill: none; fill-rule: nonzero; opacity: 1;" transform=" translate(-10.63, -11.75)" d="M 13.42 9 C 13.42 9 13.1 10.3 9.78998 10 L 9.78998 9.13 L 7.84998 11.67 L 9.68998 14.5 L 9.78998 13.17 C 9.78998 13.17 10.16 13.62 10.79 13.17 C 11.8465 11.902 12.7309 10.4998 13.42 9 L 13.42 9 Z" stroke-linecap="round" />
                            </g>
                            <g transform="matrix(1 0 0 1 1 -4)" >
                            <path style="stroke: rgb(248,59,172); stroke-width: 1; stroke-dasharray: none; stroke-linecap: round; stroke-dashoffset: 0; stroke-linejoin: round; stroke-miterlimit: 4; fill: none; fill-rule: nonzero; opacity: 1;" transform=" translate(-8, -3.5)" d="M 4.73999 1.50001 C 4.73999 1.50001 5.96999 1.50001 7.52999 4.50001 L 6.71999 5.50001 L 10.08 5.50001 L 11.27 2.36001 L 9.86999 2.79001 C 9.84964 2.57304 9.77107 2.36559 9.64258 2.18957 C 9.51409 2.01356 9.34044 1.87551 9.13999 1.79001 C 8.45073 1.56183 7.72512 1.4635 6.99999 1.50001 L 4.73999 1.50001 Z" stroke-linecap="round" />
                            </g>
                            </g>
                            </g>
                        </svg>
