<svg id='Harvest_Farmer_3_24' width='50' height='50' viewBox='0 0 24 24' xmlns='http://www.w3.org/2000/svg' xmlns:xlink='http://www.w3.org/1999/xlink'><rect width='24' height='24' stroke='none' fill='#000000' opacity='0'/>


<g transform="matrix(0.83 0 0 0.83 12 12)" >
<g style="" >
<g transform="matrix(1 0 0 1 -0.02 4.13)" >
<path style="stroke: none; stroke-width: 1; stroke-dasharray: none; stroke-linecap: butt; stroke-dashoffset: 0; stroke-linejoin: miter; stroke-miterlimit: 4; fill: rgb(0,0,0); fill-rule: nonzero; opacity: 1;" transform=" translate(-11.98, -16.13)" d="M 23.88 22.14 L 22.63 14.89 C 22.608638895284614 14.766991653760053 22.575141925539512 14.64640256267769 22.529999999999998 14.530000000000001 L 20 9.25 C 19.76414820225876 8.739121823703885 19.262213309597517 8.403211549384439 18.7 8.38 C 18.13507785158345 8.336513181390572 17.597757751757126 8.63066652071155 17.33 9.13 L 15.5 12.37 L 12.78 14.43 C 12.618071058511203 14.555914685048803 12.482209555212965 14.71215541384178 12.379999999999999 14.89 L 3.94 16.77 C 3.94 16.56 3.86 16.37 3.84 16.23 C 3.759918711274535 15.677715250169207 3.2472847498307935 15.294918711274535 2.6950000000000003 15.375 C 2.142715250169207 15.455081288725465 1.7599187112745351 15.967715250169206 1.8399999999999999 16.52 C 1.870614747934212 16.752215127479175 1.9140139926605007 16.98256496487255 1.9700000000000006 17.210000000000004 L 1.1099999999999999 17.400000000000002 C 0.5720607227661594 17.51951127103755 0.23218383061250103 18.051686931120255 0.34999999999999976 18.590000000000003 C 0.45064168917920755 19.059137898325897 0.8703071914799716 19.3906736451435 1.3499999999999996 19.380000000000003 L 1.5699999999999998 19.380000000000003 L 2.57 19.150000000000002 C 2.85015445543558 19.862712942520126 3.223394440551746 20.535217420206912 3.680000000000001 21.150000000000002 C 2.607619522665588 21.22915125617618 1.5611879088490976 21.51793920154761 0.6000000000000023 21.999999999999996 C 0.2745216133017894 22.170262859348895 0.06858750848358941 22.50526133711243 0.06361610693527575 22.87254992480333 C 0.05864470538696209 23.23983851249423 0.2554363445454779 23.58028804823846 0.5761871821713014 23.759297884961654 C 0.896938019797125 23.938307721684847 1.2900109268456417 23.92705937177976 1.5999999999999996 23.73 C 2.812962787696697 23.203012962224907 4.12831855956833 22.95360784184405 5.450000000000003 23 C 6.77017207584696 22.947305792805423 8.08546627301069 23.1898665408538 9.299999999999999 23.71 C 9.451432808431235 23.799876587805198 9.623913793192566 23.848171263538372 9.8 23.85 C 10.241923320829427 23.838405588622823 10.62379470717353 23.53801641803035 10.739136166638387 23.111253018010377 C 10.854477626103245 22.6844896179904 10.675916153651077 22.23263210718272 10.3 22 C 9.055275495442046 21.379687170433595 7.690198247347087 21.038417858409854 6.299999999999995 21 C 6.238475099090865 20.836160416578558 6.135029367806509 20.69133639278046 5.999999999999999 20.58 C 5.395689664971204 20.06519956504073 4.922644308265866 19.413905233344977 4.619999999999999 18.68 L 12.86 16.84 C 13.388141444431051 17.23334728039577 14.111858555568947 17.23334728039577 14.639999999999999 16.84 L 17.64 14.59 C 17.800553397210546 14.469474868585081 17.933518246172518 14.316053889013576 18.03 14.14 L 18.580000000000002 13.190000000000001 L 19.41 14.760000000000002 L 14.9 19.26 L 14.9 22.380000000000003 C 14.900000029031595 23.208427104217755 15.571572895782248 23.879999947433646 16.4 23.879999947433646 C 17.22842710421775 23.879999947433646 17.899999970968402 23.208427104217755 17.9 22.380000000000003 L 17.9 20.05 L 20.11 18.05 L 20.919999999999998 22.59 C 21.037157080652396 23.317863670369967 21.662786705300253 23.854721523952925 22.4 23.86 L 22.639999999999997 23.86 C 23.454062843544385 23.722101785845837 24.006423902538224 22.95592354272535 23.88 22.14 Z" stroke-linecap="round" />
</g>
<g transform="matrix(1 0 0 1 4.4 -5.63)" >
<path style="stroke: none; stroke-width: 1; stroke-dasharray: none; stroke-linecap: butt; stroke-dashoffset: 0; stroke-linejoin: miter; stroke-miterlimit: 4; fill: rgb(0,0,0); fill-rule: nonzero; opacity: 1;" transform=" translate(-16.4, -6.37)" d="M 16.4 7.87 C 17.780711874576983 7.87 18.9 6.750711874576984 18.9 5.37 L 18.9 4.87 L 13.899999999999999 4.87 L 13.899999999999999 5.37 C 13.899999999999999 6.750711874576984 15.019288125423016 7.87 16.4 7.87 Z" stroke-linecap="round" />
</g>
<g transform="matrix(1 0 0 1 4.61 -10.01)" >
<path style="stroke: none; stroke-width: 1; stroke-dasharray: none; stroke-linecap: butt; stroke-dashoffset: 0; stroke-linejoin: miter; stroke-miterlimit: 4; fill: rgb(0,0,0); fill-rule: nonzero; opacity: 1;" transform=" translate(-16.61, -1.99)" d="M 11.56 3.87 L 21.65 3.87 C 22.202284749830792 3.87 22.65 3.4222847498307933 22.65 2.87 C 22.65 2.317715250169207 22.202284749830792 1.87 21.65 1.87 L 18.78 1.87 C 18.45261684274076 0.8282499934479846 17.486981138943413 0.11951651082547965 16.395000000000003 0.11951651082547965 C 15.30301886105659 0.11951651082547965 14.337383157259241 0.8282499934479848 14.010000000000002 1.8700000000000006 L 11.56 1.87 C 11.007715250169207 1.87 10.56 2.317715250169207 10.56 2.87 C 10.56 3.4222847498307933 11.007715250169207 3.87 11.56 3.87 Z" stroke-linecap="round" />
</g>
</g>
</g>
</svg>
