<svg id='Seeding_24' width='50' height='50' viewBox='0 0 24 24' xmlns='http://www.w3.org/2000/svg' xmlns:xlink='http://www.w3.org/1999/xlink'><rect width='24' height='24' stroke='none' fill='#000000' opacity='0'/>
                            <g transform="matrix(0.83 0 0 0.83 12 12)" >
                            <g style="" >
                            <g transform="matrix(1 0 0 1 0 4.5)" >
                            <path style="stroke: none; stroke-width: 1; stroke-dasharray: none; stroke-linecap: butt; stroke-dashoffset: 0; stroke-linejoin: miter; stroke-miterlimit: 4; fill: rgb(0,0,0); fill-rule: nonzero; opacity: 0.35;" transform=" translate(-12, -16.5)" d="M 20 12 L 17.91 12 C 17.965 12.326 18 12.658 18 13 C 18 13.348 17.964 13.687 17.907 14.019 C 17.803 14.628 17.609 15.205 17.335 15.736 C 17.082 16.228 16.763 16.678 16.39 17.080000000000002 C 15.994 17.506 15.538 17.874000000000002 15.033000000000001 18.17 C 14.143 18.694 13.109 19 12 19 C 10.891 19 9.857 18.694 8.966000000000001 18.17 C 8.462000000000002 17.873 8.006 17.506 7.609000000000001 17.080000000000002 C 7.236000000000001 16.679000000000002 6.917000000000001 16.228 6.664000000000001 15.736000000000002 C 6.391000000000001 15.205000000000002 6.197000000000001 14.628000000000002 6.0920000000000005 14.019000000000002 C 6.036 13.687 6 13.348 6 13 C 6 12.658 6.035 12.326 6.09 12 L 4 12 C 3.448 12 3 12.448 3 13 L 3 18 C 3 18 3 18 3 18 C 3 19.657 4.343 21 6 21 L 18 21 C 18 21 18 21 18 21 C 19.657 21 21 19.657 21 18 L 21 13 C 21 12.448 20.552 12 20 12 z" stroke-linecap="round" />
                            </g>
                            <g transform="matrix(1 0 0 1 -2.5 -1.5)" >
                            <path style="stroke: none; stroke-width: 1; stroke-dasharray: none; stroke-linecap: butt; stroke-dashoffset: 0; stroke-linejoin: miter; stroke-miterlimit: 4; fill: rgb(0,0,0); fill-rule: nonzero; opacity: 1;" transform=" translate(-9.5, -10.5)" d="M 11.274 11.155 C 11.344 11.805 10.805 12.344 10.155 12.274 C 9.583 12.212 8.91 12.030999999999999 8.44 11.561 C 7.97 11.091 7.787999999999999 10.417 7.726999999999999 9.846 C 7.656999999999999 9.196 8.196 8.657 8.846 8.727 C 9.418 8.789 10.091000000000001 8.97 10.561 9.44 C 11.031 9.909 11.212 10.583 11.274 11.155 z" stroke-linecap="round" />
                            </g>
                            <g transform="matrix(1 0 0 1 -1.5 -7.5)" >
                            <path style="stroke: none; stroke-width: 1; stroke-dasharray: none; stroke-linecap: butt; stroke-dashoffset: 0; stroke-linejoin: miter; stroke-miterlimit: 4; fill: rgb(0,0,0); fill-rule: nonzero; opacity: 1;" transform=" translate(-10.5, -4.5)" d="M 12.274 5.155 C 12.344 5.805000000000001 11.805 6.344 11.155 6.274 C 10.583 6.212 9.91 6.031 9.439 5.56 C 8.969 5.09 8.787 4.4159999999999995 8.726 3.8449999999999998 C 8.656 3.195 9.195 2.6559999999999997 9.845 2.726 C 10.417 2.788 11.09 2.969 11.56 3.439 C 12.030000000000001 3.9090000000000003 12.212 4.583 12.274 5.155 z" stroke-linecap="round" />
                            </g>
                            <g transform="matrix(1 0 0 1 2.5 -3.5)" >
                            <path style="stroke: none; stroke-width: 1; stroke-dasharray: none; stroke-linecap: butt; stroke-dashoffset: 0; stroke-linejoin: miter; stroke-miterlimit: 4; fill: rgb(0,0,0); fill-rule: nonzero; opacity: 1;" transform=" translate(-14.5, -8.5)" d="M 13.845 10.274 C 13.195 10.344 12.656 9.805 12.726 9.155 C 12.788 8.583 12.969000000000001 7.909999999999999 13.439 7.4399999999999995 C 13.909 6.97 14.583 6.787999999999999 15.154 6.726999999999999 C 15.804 6.656999999999999 16.343 7.196 16.273 7.845999999999999 C 16.211 8.418 16.03 9.091 15.56 9.561 C 15.09 10.031 14.417 10.212 13.845 10.274 z" stroke-linecap="round" />
                            </g>
                            <g transform="matrix(1 0 0 1 0.5 2.5)" >
                            <path style="stroke: none; stroke-width: 1; stroke-dasharray: none; stroke-linecap: butt; stroke-dashoffset: 0; stroke-linejoin: miter; stroke-miterlimit: 4; fill: rgb(0,0,0); fill-rule: nonzero; opacity: 1;" transform=" translate(-12.5, -14.5)" d="M 11.845 16.274 C 11.195 16.344 10.656 15.805000000000001 10.726 15.155000000000001 C 10.788 14.583000000000002 10.969000000000001 13.91 11.439 13.440000000000001 C 11.909 12.97 12.583 12.788000000000002 13.154 12.727000000000002 C 13.804 12.657000000000002 14.343 13.196000000000002 14.273 13.846000000000002 C 14.211 14.418000000000001 14.03 15.091000000000001 13.56 15.561000000000002 C 13.09 16.031 12.417 16.212 11.845 16.274 z" stroke-linecap="round" />
                            </g>
                            </g>
                            </g>
                        </svg>
